<svg width="1959" height="426" viewBox="0 0 1959 426" fill="none" xmlns="http://www.w3.org/2000/svg">
<rect x="109.224" y="144.638" width="136.724" height="136.724" stroke="#9B82EF" stroke-width="13.2314"/>
<rect x="109.224" y="282.131" width="136.724" height="136.724" stroke="#9B82EF" stroke-width="13.2314"/>
<rect x="245.717" y="7.14505" width="136.724" height="136.724" stroke="#9B82EF" stroke-width="13.2314"/>
<rect x="245.717" y="144.638" width="136.724" height="136.724" stroke="#9B82EF" stroke-width="13.2314"/>
<rect x="245.717" y="282.131" width="136.724" height="136.724" stroke="#9B82EF" stroke-width="13.2314"/>
<circle cx="177.471" cy="75.7465" r="40.1352" fill="#9B82EF"/>
<circle cx="40.7465" cy="75.7465" r="40.1352" fill="#9B82EF"/>
<circle cx="40.7465" cy="213" r="40.1352" fill="#9B82EF"/>
<circle cx="40.7465" cy="350.253" r="40.1352" fill="#9B82EF"/>
<circle cx="314.195" cy="75.7465" r="40.1352" fill="#9B82EF"/>
<path d="M424.173 282.913L319.744 387.343L283.252 350.852L287.784 346.319L319.744 378.279L324.34 373.684L419.642 278.382L424.173 282.913Z" stroke="#1B9354" stroke-width="13"/>
<path d="M499 324.418V101H639.073V130.018H532.709V198.091H631.764V227H532.709V295.4H640.382V324.418H499Z" fill="black"/>
<path d="M707.227 156.855L744.209 222.091L781.518 156.855H817.191L764.936 240.636L817.627 324.418H781.955L744.209 261.8L706.573 324.418H670.791L722.936 240.636L671.445 156.855H707.227Z" fill="black"/>
<path d="M899.145 328.127C888.527 328.127 878.927 326.164 870.345 322.236C861.764 318.236 854.964 312.455 849.945 304.891C845 297.327 842.527 288.055 842.527 277.073C842.527 267.618 844.345 259.836 847.982 253.727C851.618 247.618 856.527 242.782 862.709 239.218C868.891 235.655 875.8 232.964 883.436 231.145C891.073 229.327 898.855 227.945 906.782 227C916.818 225.836 924.964 224.891 931.218 224.164C937.473 223.364 942.018 222.091 944.855 220.345C947.691 218.6 949.109 215.764 949.109 211.836V211.073C949.109 201.545 946.418 194.164 941.036 188.927C935.727 183.691 927.8 181.073 917.255 181.073C906.273 181.073 897.618 183.509 891.291 188.382C885.036 193.182 880.709 198.527 878.309 204.418L847.655 197.436C851.291 187.255 856.6 179.036 863.582 172.782C870.636 166.455 878.745 161.873 887.909 159.036C897.073 156.127 906.709 154.673 916.818 154.673C923.509 154.673 930.6 155.473 938.091 157.073C945.655 158.6 952.709 161.436 959.255 165.582C965.873 169.727 971.291 175.655 975.509 183.364C979.727 191 981.836 200.927 981.836 213.145V324.418H949.982V301.509H948.673C946.564 305.727 943.4 309.873 939.182 313.945C934.964 318.018 929.545 321.4 922.927 324.091C916.309 326.782 908.382 328.127 899.145 328.127ZM906.236 301.945C915.255 301.945 922.964 300.164 929.364 296.6C935.836 293.036 940.745 288.382 944.091 282.636C947.509 276.818 949.218 270.6 949.218 263.982V242.382C948.055 243.545 945.8 244.636 942.455 245.655C939.182 246.6 935.436 247.436 931.218 248.164C927 248.818 922.891 249.436 918.891 250.018C914.891 250.527 911.545 250.964 908.855 251.327C902.527 252.127 896.745 253.473 891.509 255.364C886.345 257.255 882.2 259.982 879.073 263.545C876.018 267.036 874.491 271.691 874.491 277.509C874.491 285.582 877.473 291.691 883.436 295.836C889.4 299.909 897 301.945 906.236 301.945Z" fill="black"/>
<path d="M1025.28 324.418V156.855H1056.59V184.127H1058.66C1062.15 174.891 1067.86 167.691 1075.79 162.527C1083.72 157.291 1093.21 154.673 1104.26 154.673C1115.46 154.673 1124.85 157.291 1132.41 162.527C1140.05 167.764 1145.68 174.964 1149.32 184.127H1151.06C1155.06 175.182 1161.43 168.055 1170.15 162.745C1178.88 157.364 1189.28 154.673 1201.35 154.673C1216.55 154.673 1228.95 159.436 1238.55 168.964C1248.23 178.491 1253.06 192.855 1253.06 212.055V324.418H1220.45V215.109C1220.45 203.764 1217.35 195.545 1211.17 190.455C1204.99 185.364 1197.61 182.818 1189.03 182.818C1178.41 182.818 1170.15 186.091 1164.26 192.636C1158.37 199.109 1155.43 207.436 1155.43 217.618V324.418H1122.92V213.036C1122.92 203.945 1120.08 196.636 1114.41 191.109C1108.74 185.582 1101.35 182.818 1092.26 182.818C1086.08 182.818 1080.37 184.455 1075.14 187.727C1069.97 190.927 1065.79 195.4 1062.59 201.145C1059.46 206.891 1057.9 213.545 1057.9 221.109V324.418H1025.28Z" fill="black"/>
<path d="M1371.73 324.418H1299.4V101H1374.02C1395.91 101 1414.71 105.473 1430.42 114.418C1446.13 123.291 1458.16 136.055 1466.53 152.709C1474.96 169.291 1479.18 189.182 1479.18 212.382C1479.18 235.655 1474.93 255.655 1466.42 272.382C1457.98 289.109 1445.76 301.982 1429.76 311C1413.76 319.945 1394.42 324.418 1371.73 324.418ZM1333.11 294.964H1369.87C1386.89 294.964 1401.04 291.764 1412.31 285.364C1423.58 278.891 1432.02 269.545 1437.62 257.327C1443.22 245.036 1446.02 230.055 1446.02 212.382C1446.02 194.855 1443.22 179.982 1437.62 167.764C1432.09 155.545 1423.84 146.273 1412.85 139.945C1401.87 133.618 1388.24 130.455 1371.95 130.455H1333.11V294.964Z" fill="black"/>
<path d="M1624.63 254.927V156.855H1657.35V324.418H1625.28V295.4H1623.54C1619.68 304.345 1613.5 311.8 1604.99 317.764C1596.55 323.655 1586.05 326.6 1573.46 326.6C1562.7 326.6 1553.17 324.236 1544.88 319.509C1536.66 314.709 1530.19 307.618 1525.46 298.236C1520.81 288.855 1518.48 277.255 1518.48 263.436V156.855H1551.1V259.509C1551.1 270.927 1554.26 280.018 1560.59 286.782C1566.92 293.545 1575.14 296.927 1585.25 296.927C1591.35 296.927 1597.43 295.4 1603.46 292.345C1609.57 289.291 1614.63 284.673 1618.63 278.491C1622.7 272.309 1624.7 264.455 1624.63 254.927Z" fill="black"/>
<path d="M1779.4 156.855V183.036H1687.87V156.855H1779.4ZM1712.42 116.709H1745.04V275.218C1745.04 281.545 1745.98 286.309 1747.87 289.509C1749.76 292.636 1752.2 294.782 1755.18 295.945C1758.24 297.036 1761.55 297.582 1765.11 297.582C1767.73 297.582 1770.02 297.4 1771.98 297.036C1773.95 296.673 1775.47 296.382 1776.56 296.164L1782.45 323.109C1780.56 323.836 1777.87 324.564 1774.38 325.291C1770.89 326.091 1766.53 326.527 1761.29 326.6C1752.71 326.745 1744.71 325.218 1737.29 322.018C1729.87 318.818 1723.87 313.873 1719.29 307.182C1714.71 300.491 1712.42 292.091 1712.42 281.982V116.709Z" fill="black"/>
<path d="M1836.1 387.255C1831.23 387.255 1826.79 386.855 1822.79 386.055C1818.79 385.327 1815.81 384.527 1813.85 383.655L1821.7 356.927C1827.66 358.527 1832.97 359.218 1837.63 359C1842.28 358.782 1846.39 357.036 1849.95 353.764C1853.59 350.491 1856.79 345.145 1859.55 337.727L1863.59 326.6L1802.28 156.855H1837.19L1879.63 286.891H1881.37L1923.81 156.855H1958.83L1889.77 346.782C1886.57 355.509 1882.5 362.891 1877.55 368.927C1872.61 375.036 1866.72 379.618 1859.88 382.673C1853.05 385.727 1845.12 387.255 1836.1 387.255Z" fill="black"/>
</svg>
